# xmcd CD database file
#
# Track frame offsets:
#	150
#	35850
#	85050
#	122715
#	152518
#	189509
#	222525
#
# Disc length: 3455 seconds
#
# Revision: 0
# Processed by: cddbd v1.5PL3 Copyright (c) Steve Scherf et al.
# Submitted via: CDex 1.50
#
DISCID=5d0d7d07
DTITLE=Pat Metheny - Artist In Residence Project [CD1]
DYEAR=2004
DGENRE=Jazz
TTITLE0=Turnaround
TTITLE1=How Insensitive
TTITLE2=Time Of The Gypsies
TTITLE3=4 P.M.
TTITLE4=Met Metheny
TTITLE5=Travels
TTITLE6=Song For Bilbao
EXTD=YEAR: 2004
EXTT0=
EXTT1=
EXTT2=
EXTT3=
EXTT4=
EXTT5=
EXTT6=
PLAYORDER=
